<svg width="177" height="24" viewBox="0 0 177 24" fill="none" xmlns="http://www.w3.org/2000/svg">
<g clip-path="url(#clip0_70_10)">
<mask id="mask0_70_10" style="mask-type:luminance" maskUnits="userSpaceOnUse" x="0" y="0" width="177" height="24">
<path d="M177 0H0V24H177V0Z" fill="white"/>
</mask>
<g mask="url(#mask0_70_10)">
<path d="M42.0973 9.54706H38.9865C38.9297 9.14459 38.8137 8.78711 38.6385 8.47461C38.4633 8.15738 38.2384 7.88749 37.9638 7.66495C37.6892 7.44241 37.3719 7.27196 37.0121 7.15359C36.657 7.03522 36.2711 6.97603 35.8544 6.97603C35.1016 6.97603 34.4458 7.16306 33.8871 7.53711C33.3284 7.90643 32.8951 8.4462 32.5874 9.15643C32.2796 9.86192 32.1257 10.7189 32.1257 11.7275C32.1257 12.7644 32.2796 13.6356 32.5874 14.3411C32.8999 15.0466 33.3355 15.5793 33.8942 15.9391C34.4529 16.299 35.0992 16.4789 35.8331 16.4789C36.245 16.4789 36.6262 16.4244 36.9766 16.3155C37.3317 16.2066 37.6466 16.048 37.9212 15.8397C38.1958 15.6266 38.4231 15.3686 38.603 15.0655C38.7877 14.7625 38.9155 14.4169 38.9865 14.0286L42.0973 14.0428C42.0168 14.7104 41.8156 15.3544 41.4936 15.9746C41.1764 16.5902 40.7479 17.1418 40.2081 17.6295C39.6731 18.1124 39.0339 18.4959 38.2905 18.78C37.5519 19.0594 36.7162 19.1991 35.7834 19.1991C34.486 19.1991 33.326 18.9055 32.3033 18.3184C31.2853 17.7313 30.4804 16.8814 29.8885 15.7687C29.3014 14.656 29.0078 13.3089 29.0078 11.7275C29.0078 10.1413 29.3061 8.79185 29.9027 7.67916C30.4993 6.56647 31.309 5.71893 32.3317 5.13654C33.3544 4.54942 34.505 4.25586 35.7834 4.25586C36.6262 4.25586 37.4074 4.37423 38.1271 4.61098C38.8516 4.84772 39.4931 5.19336 40.0519 5.64791C40.6106 6.09772 41.0651 6.64933 41.4155 7.30274C41.7706 7.95615 41.9979 8.70425 42.0973 9.54706ZM48.3747 19.2133C47.2715 19.2133 46.3174 18.9789 45.5125 18.5101C44.7123 18.0367 44.0944 17.3785 43.6588 16.5357C43.2232 15.6882 43.0054 14.7057 43.0054 13.5883C43.0054 12.4614 43.2232 11.4765 43.6588 10.6337C44.0944 9.78616 44.7123 9.12802 45.5125 8.65927C46.3174 8.18579 47.2715 7.94904 48.3747 7.94904C49.4779 7.94904 50.4297 8.18579 51.2298 8.65927C52.0348 9.12802 52.655 9.78616 53.0906 10.6337C53.5262 11.4765 53.744 12.4614 53.744 13.5883C53.744 14.7057 53.5262 15.6882 53.0906 16.5357C52.655 17.3785 52.0348 18.0367 51.2298 18.5101C50.4297 18.9789 49.4779 19.2133 48.3747 19.2133ZM48.3889 16.8695C48.8908 16.8695 49.3099 16.7275 49.646 16.4434C49.9822 16.1546 50.2355 15.7616 50.406 15.2644C50.5812 14.7672 50.6688 14.2014 50.6688 13.567C50.6688 12.9325 50.5812 12.3667 50.406 11.8695C50.2355 11.3724 49.9822 10.9794 49.646 10.6905C49.3099 10.4017 48.8908 10.2573 48.3889 10.2573C47.8823 10.2573 47.4562 10.4017 47.1105 10.6905C46.7696 10.9794 46.5116 11.3724 46.3364 11.8695C46.1659 12.3667 46.0807 12.9325 46.0807 13.567C46.0807 14.2014 46.1659 14.7672 46.3364 15.2644C46.5116 15.7616 46.7696 16.1546 47.1105 16.4434C47.4562 16.7275 47.8823 16.8695 48.3889 16.8695ZM57.9369 12.6934V19.0002H54.9114V8.09109H57.7949V10.0158H57.9227C58.1642 9.38134 58.569 8.87944 59.1372 8.51012C59.7054 8.13607 60.3943 7.94904 61.204 7.94904C61.9616 7.94904 62.6221 8.11476 63.1855 8.4462C63.749 8.77764 64.1869 9.25113 64.4994 9.86666C64.8119 10.4775 64.9682 11.2066 64.9682 12.0542V19.0002H61.9426V12.594C61.9474 11.9263 61.7769 11.4055 61.4313 11.0314C61.0856 10.6527 60.6098 10.4633 60.0037 10.4633C59.5965 10.4633 59.2367 10.5509 58.9242 10.7261C58.6164 10.9012 58.3749 11.1569 58.1997 11.4931C58.0293 11.8245 57.9417 12.2246 57.9369 12.6934ZM72.3553 8.09109V10.3638H65.7857V8.09109H72.3553ZM67.2772 5.47745H70.3028V15.6479C70.3028 15.9273 70.3454 16.1451 70.4306 16.3013C70.5158 16.4529 70.6342 16.5594 70.7857 16.6209C70.942 16.6825 71.1219 16.7133 71.3255 16.7133C71.4676 16.7133 71.6096 16.7014 71.7516 16.6778C71.8937 16.6493 72.0026 16.628 72.0783 16.6138L72.5542 18.8653C72.4027 18.9126 72.1896 18.9671 71.915 19.0286C71.6404 19.0949 71.3066 19.1351 70.9136 19.1493C70.1844 19.1778 69.5452 19.0807 68.996 18.8582C68.4515 18.6356 68.0277 18.29 67.7247 17.8212C67.4216 17.3525 67.2725 16.7606 67.2772 16.0457V5.47745ZM78.3806 19.2133C77.2585 19.2133 76.2926 18.986 75.4829 18.5314C74.678 18.0722 74.0577 17.4235 73.6221 16.5854C73.1865 15.7426 72.9687 14.7459 72.9687 13.5954C72.9687 12.4732 73.1865 11.4884 73.6221 10.6408C74.0577 9.79327 74.6709 9.13276 75.4616 8.65927C76.257 8.18579 77.1898 7.94904 78.2599 7.94904C78.9796 7.94904 79.6496 8.06505 80.2698 8.29706C80.8948 8.52433 81.4393 8.8676 81.9033 9.32688C82.3721 9.78616 82.7367 10.3638 82.9971 11.0599C83.2575 11.7511 83.3877 12.5608 83.3877 13.4888V14.3198H74.1761V12.4448H80.5397C80.5397 12.0092 80.445 11.6233 80.2556 11.2871C80.0662 10.951 79.8034 10.6882 79.4673 10.4988C79.1358 10.3047 78.7499 10.2076 78.3096 10.2076C77.8503 10.2076 77.4431 10.3141 77.088 10.5272C76.7376 10.7355 76.463 11.0172 76.2641 11.3724C76.0653 11.7227 75.9635 12.1134 75.9587 12.5442V14.3269C75.9587 14.8667 76.0582 15.3331 76.257 15.7261C76.4606 16.119 76.7471 16.4221 77.1164 16.6351C77.4857 16.8482 77.9237 16.9547 78.4303 16.9547C78.7665 16.9547 79.0743 16.9074 79.3536 16.8127C79.633 16.718 79.8721 16.576 80.071 16.3866C80.2698 16.1972 80.4213 15.9652 80.5255 15.6905L83.3238 15.8752C83.1818 16.5475 82.8906 17.1347 82.4502 17.6366C82.0146 18.1337 81.4512 18.522 80.7599 18.8013C80.0733 19.076 79.2802 19.2133 78.3806 19.2133ZM86.8953 8.09109L88.8981 11.905L90.9506 8.09109H94.0543L90.8938 13.5457L94.1396 19.0002H91.0501L88.8981 15.2289L86.7816 19.0002H83.6566L86.8953 13.5457L83.7703 8.09109H86.8953ZM100.853 8.09109V10.3638H94.2842V8.09109H100.853ZM95.7756 5.47745H98.8012V15.6479C98.8012 15.9273 98.8438 16.1451 98.9291 16.3013C99.0143 16.4529 99.1327 16.5594 99.2842 16.6209C99.4404 16.6825 99.6203 16.7133 99.8239 16.7133C99.966 16.7133 100.108 16.7014 100.25 16.6778C100.392 16.6493 100.501 16.628 100.576 16.6138L101.052 18.8653C100.901 18.9126 100.688 18.9671 100.413 19.0286C100.139 19.0949 99.805 19.1351 99.412 19.1493C98.6828 19.1778 98.0436 19.0807 97.4944 18.8582C96.9499 18.6356 96.5261 18.29 96.2231 17.8212C95.9201 17.3525 95.7709 16.7606 95.7756 16.0457V5.47745Z" fill="white"/>
<path d="M110.047 19L106.07 4.45455H107.86L110.9 16.3011H111.042L114.138 4.45455H116.127L119.224 16.3011H119.366L122.405 4.45455H124.195L120.218 19H118.4L115.189 7.40909H115.076L111.866 19H110.047ZM125.362 19V8.09091H127.039V19H125.362ZM126.215 6.27273C125.888 6.27273 125.606 6.16146 125.37 5.93892C125.138 5.71638 125.022 5.44886 125.022 5.13636C125.022 4.82386 125.138 4.55634 125.37 4.33381C125.606 4.11127 125.888 4 126.215 4C126.541 4 126.821 4.11127 127.053 4.33381C127.29 4.55634 127.408 4.82386 127.408 5.13636C127.408 5.44886 127.29 5.71638 127.053 5.93892C126.821 6.16146 126.541 6.27273 126.215 6.27273ZM130.985 12.4375V19H129.309V8.09091H130.928V9.79545H131.07C131.326 9.24148 131.714 8.7964 132.235 8.46023C132.755 8.11932 133.428 7.94886 134.252 7.94886C134.99 7.94886 135.637 8.10038 136.191 8.40341C136.745 8.7017 137.175 9.15625 137.483 9.76705C137.791 10.3731 137.945 11.1402 137.945 12.0682V19H136.269V12.1818C136.269 11.3248 136.046 10.6572 135.601 10.179C135.156 9.69602 134.545 9.45455 133.769 9.45455C133.234 9.45455 132.755 9.57055 132.334 9.80256C131.917 10.0346 131.588 10.3731 131.347 10.8182C131.105 11.2633 130.985 11.803 130.985 12.4375ZM144.327 19.2273C143.418 19.2273 142.615 18.9976 141.919 18.5384C141.223 18.0743 140.679 17.4209 140.286 16.5781C139.893 15.7306 139.696 14.7292 139.696 13.5739C139.696 12.428 139.893 11.4337 140.286 10.5909C140.679 9.74811 141.226 9.09706 141.926 8.63778C142.627 8.1785 143.437 7.94886 144.355 7.94886C145.066 7.94886 145.627 8.06723 146.039 8.30398C146.455 8.53598 146.773 8.80114 146.99 9.09943C147.213 9.39299 147.386 9.63447 147.509 9.82386H147.651V4.45455H149.327V19H147.708V17.3239H147.509C147.386 17.5227 147.211 17.7737 146.983 18.0767C146.756 18.375 146.432 18.6425 146.01 18.8793C145.589 19.1113 145.028 19.2273 144.327 19.2273ZM144.554 17.7216C145.227 17.7216 145.795 17.5464 146.259 17.196C146.723 16.8409 147.076 16.3509 147.317 15.7259C147.559 15.0961 147.679 14.3693 147.679 13.5455C147.679 12.7311 147.561 12.0185 147.324 11.4077C147.087 10.7921 146.737 10.3139 146.273 9.97301C145.809 9.62737 145.236 9.45455 144.554 9.45455C143.844 9.45455 143.252 9.63684 142.779 10.0014C142.31 10.3613 141.957 10.8513 141.721 11.4716C141.489 12.0871 141.373 12.7784 141.373 13.5455C141.373 14.322 141.491 15.0275 141.728 15.6619C141.969 16.2917 142.324 16.7936 142.793 17.1676C143.266 17.5369 143.854 17.7216 144.554 17.7216ZM156.261 19.2273C155.277 19.2273 154.412 18.9929 153.669 18.5241C152.93 18.0554 152.353 17.3996 151.936 16.5568C151.524 15.714 151.318 14.7292 151.318 13.6023C151.318 12.4659 151.524 11.474 151.936 10.6264C152.353 9.77888 152.93 9.12074 153.669 8.65199C154.412 8.18324 155.277 7.94886 156.261 7.94886C157.246 7.94886 158.108 8.18324 158.847 8.65199C159.59 9.12074 160.168 9.77888 160.58 10.6264C160.996 11.474 161.205 12.4659 161.205 13.6023C161.205 14.7292 160.996 15.714 160.58 16.5568C160.168 17.3996 159.59 18.0554 158.847 18.5241C158.108 18.9929 157.246 19.2273 156.261 19.2273ZM156.261 17.7216C157.01 17.7216 157.625 17.5298 158.108 17.1463C158.591 16.7628 158.948 16.2585 159.18 15.6335C159.412 15.0085 159.528 14.3314 159.528 13.6023C159.528 12.8731 159.412 12.1937 159.18 11.5639C158.948 10.9342 158.591 10.4252 158.108 10.0369C157.625 9.64867 157.01 9.45455 156.261 9.45455C155.513 9.45455 154.898 9.64867 154.415 10.0369C153.932 10.4252 153.574 10.9342 153.342 11.5639C153.11 12.1937 152.994 12.8731 152.994 13.6023C152.994 14.3314 153.11 15.0085 153.342 15.6335C153.574 16.2585 153.932 16.7628 154.415 17.1463C154.898 17.5298 155.513 17.7216 156.261 17.7216ZM165.064 19L161.74 8.09091H163.501L165.859 16.4432H165.973L168.302 8.09091H170.092L172.393 16.4148H172.507L174.865 8.09091H176.626L173.302 19H171.655L169.268 10.6193H169.098L166.711 19H165.064Z" fill="#52525C"/>
<path d="M3 3H21M20 7H8M20 11H8M10 19H20M8 15H20M4 3V17M4 17C2.89543 17 2 17.8954 2 19C2 20.1046 2.89543 21 4 21C5.10457 21 6 20.1046 6 19C6 17.8954 5.10457 17 4 17Z" stroke="url(#paint0_linear_70_10)" stroke-width="2" stroke-linecap="round" stroke-linejoin="round"/>
</g>
</g>
<defs>
<linearGradient id="paint0_linear_70_10" x1="11.5" y1="3" x2="11.5" y2="21" gradientUnits="userSpaceOnUse">
<stop stop-color="#263FA9"/>
<stop offset="0.470153" stop-color="#263FA9"/>
<stop offset="1" stop-color="#263FA9"/>
</linearGradient>
<clipPath id="clip0_70_10">
<rect width="177" height="24" fill="white"/>
</clipPath>
</defs>
</svg>
