<svg width="177" height="24" viewBox="0 0 177 24" fill="none" xmlns="http://www.w3.org/2000/svg">
<g clip-path="url(#clip0_68_9)">
<path d="M42.098 9.54688H38.9872C38.9304 9.14441 38.8144 8.78693 38.6392 8.47443C38.464 8.1572 38.2391 7.88731 37.9645 7.66477C37.6899 7.44223 37.3726 7.27178 37.0128 7.15341C36.6577 7.03504 36.2718 6.97585 35.8551 6.97585C35.1023 6.97585 34.4465 7.16288 33.8878 7.53693C33.3291 7.90625 32.8958 8.44602 32.5881 9.15625C32.2803 9.86174 32.1264 10.7187 32.1264 11.7273C32.1264 12.7642 32.2803 13.6354 32.5881 14.3409C32.9006 15.0464 33.3362 15.5791 33.8949 15.9389C34.4536 16.2988 35.0999 16.4787 35.8338 16.4787C36.2457 16.4787 36.6269 16.4242 36.9773 16.3153C37.3324 16.2064 37.6473 16.0478 37.9219 15.8395C38.1965 15.6264 38.4238 15.3684 38.6037 15.0653C38.7884 14.7623 38.9162 14.4167 38.9872 14.0284L42.098 14.0426C42.0175 14.7102 41.8163 15.3542 41.4943 15.9744C41.1771 16.59 40.7486 17.1416 40.2088 17.6293C39.6738 18.1122 39.0346 18.4957 38.2912 18.7798C37.5526 19.0592 36.7169 19.1989 35.7841 19.1989C34.4867 19.1989 33.3267 18.9053 32.304 18.3182C31.286 17.7311 30.4811 16.8812 29.8892 15.7685C29.3021 14.6558 29.0085 13.3087 29.0085 11.7273C29.0085 10.1411 29.3068 8.79167 29.9034 7.67898C30.5 6.56629 31.3097 5.71875 32.3324 5.13636C33.3551 4.54924 34.5057 4.25568 35.7841 4.25568C36.6269 4.25568 37.4081 4.37405 38.1278 4.6108C38.8523 4.84754 39.4938 5.19318 40.0526 5.64773C40.6113 6.09754 41.0658 6.64915 41.4162 7.30256C41.7713 7.95597 41.9986 8.70407 42.098 9.54688ZM48.3754 19.2131C47.2722 19.2131 46.3181 18.9787 45.5132 18.5099C44.713 18.0365 44.0951 17.3783 43.6595 16.5355C43.2239 15.688 43.0061 14.7055 43.0061 13.5881C43.0061 12.4612 43.2239 11.4763 43.6595 10.6335C44.0951 9.78598 44.713 9.12784 45.5132 8.65909C46.3181 8.18561 47.2722 7.94886 48.3754 7.94886C49.4786 7.94886 50.4304 8.18561 51.2305 8.65909C52.0355 9.12784 52.6557 9.78598 53.0913 10.6335C53.5269 11.4763 53.7447 12.4612 53.7447 13.5881C53.7447 14.7055 53.5269 15.688 53.0913 16.5355C52.6557 17.3783 52.0355 18.0365 51.2305 18.5099C50.4304 18.9787 49.4786 19.2131 48.3754 19.2131ZM48.3896 16.8693C48.8915 16.8693 49.3106 16.7273 49.6467 16.4432C49.9829 16.1544 50.2362 15.7614 50.4067 15.2642C50.5819 14.767 50.6695 14.2012 50.6695 13.5668C50.6695 12.9323 50.5819 12.3665 50.4067 11.8693C50.2362 11.3722 49.9829 10.9792 49.6467 10.6903C49.3106 10.4015 48.8915 10.2571 48.3896 10.2571C47.883 10.2571 47.4569 10.4015 47.1112 10.6903C46.7703 10.9792 46.5123 11.3722 46.3371 11.8693C46.1666 12.3665 46.0814 12.9323 46.0814 13.5668C46.0814 14.2012 46.1666 14.767 46.3371 15.2642C46.5123 15.7614 46.7703 16.1544 47.1112 16.4432C47.4569 16.7273 47.883 16.8693 48.3896 16.8693ZM57.9376 12.6932V19H54.9121V8.09091H57.7956V10.0156H57.9234C58.1649 9.38116 58.5697 8.87926 59.1379 8.50994C59.7061 8.13589 60.395 7.94886 61.2047 7.94886C61.9623 7.94886 62.6228 8.11458 63.1862 8.44602C63.7497 8.77746 64.1876 9.25095 64.5001 9.86648C64.8126 10.4773 64.9689 11.2064 64.9689 12.054V19H61.9433V12.5938C61.9481 11.9261 61.7776 11.4053 61.432 11.0312C61.0863 10.6525 60.6105 10.4631 60.0044 10.4631C59.5972 10.4631 59.2374 10.5507 58.9249 10.7259C58.6171 10.901 58.3756 11.1567 58.2004 11.4929C58.03 11.8243 57.9424 12.2244 57.9376 12.6932ZM72.356 8.09091V10.3636H65.7864V8.09091H72.356ZM67.2779 5.47727H70.3035V15.6477C70.3035 15.9271 70.3461 16.1449 70.4313 16.3011C70.5165 16.4527 70.6349 16.5592 70.7864 16.6207C70.9427 16.6823 71.1226 16.7131 71.3262 16.7131C71.4683 16.7131 71.6103 16.7012 71.7523 16.6776C71.8944 16.6491 72.0033 16.6278 72.079 16.6136L72.5549 18.8651C72.4034 18.9124 72.1903 18.9669 71.9157 19.0284C71.6411 19.0947 71.3073 19.1349 70.9143 19.1491C70.1851 19.1776 69.5459 19.0805 68.9967 18.858C68.4522 18.6354 68.0284 18.2898 67.7254 17.821C67.4223 17.3523 67.2732 16.7604 67.2779 16.0455V5.47727ZM78.3813 19.2131C77.2592 19.2131 76.2933 18.9858 75.4836 18.5312C74.6787 18.072 74.0584 17.4233 73.6228 16.5852C73.1872 15.7424 72.9694 14.7457 72.9694 13.5952C72.9694 12.473 73.1872 11.4882 73.6228 10.6406C74.0584 9.79309 74.6716 9.13258 75.4623 8.65909C76.2577 8.18561 77.1905 7.94886 78.2606 7.94886C78.9803 7.94886 79.6503 8.06487 80.2705 8.29688C80.8955 8.52415 81.44 8.86742 81.904 9.3267C82.3728 9.78598 82.7374 10.3636 82.9978 11.0597C83.2582 11.7509 83.3884 12.5606 83.3884 13.4886V14.3196H74.1768V12.4446H80.5404C80.5404 12.009 80.4457 11.6231 80.2563 11.2869C80.0669 10.9508 79.8041 10.688 79.468 10.4986C79.1365 10.3045 78.7506 10.2074 78.3103 10.2074C77.851 10.2074 77.4438 10.3139 77.0887 10.527C76.7383 10.7353 76.4637 11.017 76.2648 11.3722C76.066 11.7225 75.9642 12.1132 75.9594 12.544V14.3267C75.9594 14.8665 76.0589 15.3329 76.2577 15.7259C76.4613 16.1188 76.7478 16.4219 77.1171 16.6349C77.4864 16.848 77.9244 16.9545 78.431 16.9545C78.7672 16.9545 79.075 16.9072 79.3543 16.8125C79.6337 16.7178 79.8728 16.5758 80.0717 16.3864C80.2705 16.197 80.422 15.965 80.5262 15.6903L83.3245 15.875C83.1825 16.5473 82.8913 17.1345 82.4509 17.6364C82.0153 18.1335 81.4519 18.5218 80.7606 18.8011C80.074 19.0758 79.2809 19.2131 78.3813 19.2131ZM86.896 8.09091L88.8988 11.9048L90.9513 8.09091H94.055L90.8945 13.5455L94.1403 19H91.0508L88.8988 15.2287L86.7823 19H83.6573L86.896 13.5455L83.771 8.09091H86.896ZM100.854 8.09091V10.3636H94.2849V8.09091H100.854ZM95.7763 5.47727H98.8019V15.6477C98.8019 15.9271 98.8445 16.1449 98.9298 16.3011C99.015 16.4527 99.1334 16.5592 99.2849 16.6207C99.4411 16.6823 99.621 16.7131 99.8246 16.7131C99.9667 16.7131 100.109 16.7012 100.251 16.6776C100.393 16.6491 100.502 16.6278 100.577 16.6136L101.053 18.8651C100.902 18.9124 100.689 18.9669 100.414 19.0284C100.14 19.0947 99.8057 19.1349 99.4127 19.1491C98.6835 19.1776 98.0443 19.0805 97.4951 18.858C96.9506 18.6354 96.5268 18.2898 96.2238 17.821C95.9208 17.3523 95.7716 16.7604 95.7763 16.0455V5.47727Z" fill="black"/>
<path d="M110.046 19L106.069 4.45455H107.859L110.899 16.3011H111.041L114.137 4.45455H116.126L119.223 16.3011H119.365L122.404 4.45455H124.194L120.217 19H118.399L115.188 7.40909H115.075L111.865 19H110.046ZM125.361 19V8.09091H127.038V19H125.361ZM126.214 6.27273C125.887 6.27273 125.605 6.16146 125.369 5.93892C125.137 5.71638 125.021 5.44886 125.021 5.13636C125.021 4.82386 125.137 4.55634 125.369 4.33381C125.605 4.11127 125.887 4 126.214 4C126.54 4 126.82 4.11127 127.052 4.33381C127.289 4.55634 127.407 4.82386 127.407 5.13636C127.407 5.44886 127.289 5.71638 127.052 5.93892C126.82 6.16146 126.54 6.27273 126.214 6.27273ZM130.984 12.4375V19H129.308V8.09091H130.927V9.79545H131.069C131.325 9.24148 131.713 8.7964 132.234 8.46023C132.754 8.11932 133.427 7.94886 134.251 7.94886C134.989 7.94886 135.636 8.10038 136.19 8.40341C136.744 8.7017 137.174 9.15625 137.482 9.76705C137.79 10.3731 137.944 11.1402 137.944 12.0682V19H136.268V12.1818C136.268 11.3248 136.045 10.6572 135.6 10.179C135.155 9.69602 134.544 9.45455 133.768 9.45455C133.233 9.45455 132.754 9.57055 132.333 9.80256C131.916 10.0346 131.587 10.3731 131.346 10.8182C131.104 11.2633 130.984 11.803 130.984 12.4375ZM144.326 19.2273C143.417 19.2273 142.614 18.9976 141.918 18.5384C141.222 18.0743 140.678 17.4209 140.285 16.5781C139.892 15.7306 139.695 14.7292 139.695 13.5739C139.695 12.428 139.892 11.4337 140.285 10.5909C140.678 9.74811 141.225 9.09706 141.925 8.63778C142.626 8.1785 143.436 7.94886 144.354 7.94886C145.065 7.94886 145.626 8.06723 146.038 8.30398C146.454 8.53598 146.772 8.80114 146.989 9.09943C147.212 9.39299 147.385 9.63447 147.508 9.82386H147.65V4.45455H149.326V19H147.707V17.3239H147.508C147.385 17.5227 147.21 17.7737 146.982 18.0767C146.755 18.375 146.431 18.6425 146.009 18.8793C145.588 19.1113 145.027 19.2273 144.326 19.2273ZM144.553 17.7216C145.226 17.7216 145.794 17.5464 146.258 17.196C146.722 16.8409 147.075 16.3509 147.316 15.7259C147.558 15.0961 147.678 14.3693 147.678 13.5455C147.678 12.7311 147.56 12.0185 147.323 11.4077C147.086 10.7921 146.736 10.3139 146.272 9.97301C145.808 9.62737 145.235 9.45455 144.553 9.45455C143.843 9.45455 143.251 9.63684 142.778 10.0014C142.309 10.3613 141.956 10.8513 141.72 11.4716C141.488 12.0871 141.372 12.7784 141.372 13.5455C141.372 14.322 141.49 15.0275 141.727 15.6619C141.968 16.2917 142.323 16.7936 142.792 17.1676C143.265 17.5369 143.853 17.7216 144.553 17.7216ZM156.26 19.2273C155.276 19.2273 154.411 18.9929 153.668 18.5241C152.929 18.0554 152.352 17.3996 151.935 16.5568C151.523 15.714 151.317 14.7292 151.317 13.6023C151.317 12.4659 151.523 11.474 151.935 10.6264C152.352 9.77888 152.929 9.12074 153.668 8.65199C154.411 8.18324 155.276 7.94886 156.26 7.94886C157.245 7.94886 158.107 8.18324 158.846 8.65199C159.589 9.12074 160.167 9.77888 160.579 10.6264C160.995 11.474 161.204 12.4659 161.204 13.6023C161.204 14.7292 160.995 15.714 160.579 16.5568C160.167 17.3996 159.589 18.0554 158.846 18.5241C158.107 18.9929 157.245 19.2273 156.26 19.2273ZM156.26 17.7216C157.009 17.7216 157.624 17.5298 158.107 17.1463C158.59 16.7628 158.947 16.2585 159.179 15.6335C159.411 15.0085 159.527 14.3314 159.527 13.6023C159.527 12.8731 159.411 12.1937 159.179 11.5639C158.947 10.9342 158.59 10.4252 158.107 10.0369C157.624 9.64867 157.009 9.45455 156.26 9.45455C155.512 9.45455 154.897 9.64867 154.414 10.0369C153.931 10.4252 153.573 10.9342 153.341 11.5639C153.109 12.1937 152.993 12.8731 152.993 13.6023C152.993 14.3314 153.109 15.0085 153.341 15.6335C153.573 16.2585 153.931 16.7628 154.414 17.1463C154.897 17.5298 155.512 17.7216 156.26 17.7216ZM165.063 19L161.739 8.09091H163.5L165.858 16.4432H165.972L168.301 8.09091H170.091L172.392 16.4148H172.506L174.864 8.09091H176.625L173.301 19H171.654L169.267 10.6193H169.097L166.71 19H165.063Z" fill="#52525C"/>
<path d="M3 3H21M20 7H8M20 11H8M10 19H20M8 15H20M4 3V17M4 17C2.89543 17 2 17.8954 2 19C2 20.1046 2.89543 21 4 21C5.10457 21 6 20.1046 6 19C6 17.8954 5.10457 17 4 17Z" stroke="url(#paint0_linear_68_9)" stroke-width="2" stroke-linecap="round" stroke-linejoin="round"/>
</g>
<defs>
<linearGradient id="paint0_linear_68_9" x1="11.5" y1="3" x2="11.5" y2="21" gradientUnits="userSpaceOnUse">
<stop stop-color="#18E198"/>
<stop offset="0.470153" stop-color="#34C569"/>
<stop offset="1" stop-color="#179F76"/>
</linearGradient>
<clipPath id="clip0_68_9">
<rect width="177" height="24" fill="white"/>
</clipPath>
</defs>
</svg>
